<svg width="24" height="27" viewBox="0 0 24 27" fill="none" xmlns="http://www.w3.org/2000/svg">
<path d="M8.5898 26.9945H7.74688C7.73435 26.9833 7.72248 26.9649 7.70797 26.9622C6.72655 26.8006 5.97004 26.2479 5.28805 25.5673C4.39765 24.6802 3.69786 23.6513 3.07326 22.5702C1.46592 19.7896 0.588048 16.8182 0.801744 13.5785C0.879572 12.3959 1.14339 11.2516 1.71325 10.2016C2.48756 8.7479 3.71483 7.58639 5.20891 6.89324C6.27541 6.38802 7.40457 6.19279 8.56539 6.44606C9.33246 6.61359 10.0824 6.86817 10.8323 7.10562C11.6139 7.35691 12.4027 7.59896 13.2271 7.44067C13.8091 7.31867 14.3809 7.15219 14.9374 6.9427C15.7585 6.6492 16.5863 6.39395 17.4615 6.34911C19.1763 6.26072 20.6406 6.87675 21.9274 7.95908C22.3172 8.28886 22.6575 8.6747 23.0328 9.04801C20.8793 10.3566 19.8062 12.2139 20.0067 14.6773C20.2046 17.1243 21.5204 18.8385 23.7781 19.8219C23.7623 19.8733 23.755 19.907 23.7418 19.9386C23.0608 21.5391 22.1784 23.0463 21.1161 24.4236C20.2086 25.6016 19.2212 26.6951 17.6528 26.9959H16.9134C16.2908 26.7703 15.6602 26.5652 15.0469 26.3145C13.5958 25.7209 12.1448 25.711 10.6839 26.242C9.98608 26.4935 9.28805 26.7444 8.5898 26.9945Z" fill="black"/>
<path d="M11.9166 6.49282C11.4193 3.9654 13.6974 0.440073 17.29 0.0390625C17.8526 2.55395 15.469 6.55416 11.9166 6.49282Z" fill="black"/>
</svg>
