<svg width="65" height="59" viewBox="0 0 65 59" fill="none" xmlns="http://www.w3.org/2000/svg">
<g filter="url(#filter0_d_201_943)">
<path d="M44.092 1.72998H21.0382C19.4331 1.73101 17.9504 2.58771 17.1478 3.97774L5.62092 23.9266C4.81468 25.3141 4.81468 27.0274 5.62092 28.4149L17.1478 48.3638C17.9504 49.7538 19.4331 50.6105 21.0382 50.6115H44.092C45.6988 50.6101 47.1835 49.7539 47.9895 48.3638L59.502 28.3861C60.3083 26.9986 60.3083 25.2853 59.502 23.8978L47.9895 3.97774C47.1835 2.58766 45.6988 1.7314 44.092 1.72998Z" fill="white"/>
<path d="M44.092 1.72998H21.0382C19.4331 1.73101 17.9504 2.58771 17.1478 3.97774L5.62092 23.9266C4.81468 25.3141 4.81468 27.0274 5.62092 28.4149L17.1478 48.3638C17.9504 49.7538 19.4331 50.6105 21.0382 50.6115H44.092C45.6988 50.6101 47.1835 49.7539 47.9895 48.3638L59.502 28.3861C60.3083 26.9986 60.3083 25.2853 59.502 23.8978L47.9895 3.97774C47.1835 2.58766 45.6988 1.7314 44.092 1.72998Z" stroke="#EBBF0C" stroke-width="3"/>
</g>
<path d="M33.4401 8.89441C33.8933 8.91765 34.3493 8.92346 34.8024 8.96122C38.6018 9.28074 41.4233 11.1097 43.2668 14.4482C43.2814 14.476 43.2931 14.5052 43.3016 14.5354C43.3016 14.5354 43.3016 14.5557 43.3016 14.5964L42.5609 14.9711C42.0497 14.2739 41.6053 13.5594 41.0505 12.9378C39.5558 11.2159 37.442 10.1533 35.1684 9.98077C33.9804 9.8762 32.7749 9.92268 31.5782 9.91396C31.4519 9.92466 31.3321 9.9744 31.2354 10.0563C30.8512 10.3504 30.614 10.7971 30.5855 11.2801C30.5571 11.7631 30.7402 12.2346 31.0873 12.5718C31.265 12.7524 31.5148 12.8432 31.767 12.8187C34.1808 12.6763 36.4523 13.1091 38.4479 14.5615C40.4434 16.0139 41.643 18.0704 42.1485 20.4842C42.3402 21.3934 42.4099 22.3258 42.5377 23.2756H43.3917V17.6085L44.2631 17.4517C44.3109 17.7246 44.3429 18 44.359 18.2766C44.359 20.705 44.4083 23.1362 44.359 25.5645C44.3333 26.8848 43.6766 28.1128 42.5929 28.8672C42.4026 29.0064 42.2752 29.2153 42.2385 29.4481C42.0032 30.4561 41.736 31.4553 41.4513 32.4487C41.3322 32.8641 41.3903 33.0936 41.7796 33.3201L44.2573 34.6737C44.1324 34.7492 44.0452 34.8102 43.9494 34.8625C43.2435 35.2489 42.5319 35.6265 41.8348 36.0244C41.6657 36.1227 41.5247 36.2627 41.4252 36.4311C40.972 37.2212 40.5538 38.0199 40.0803 38.8681L38.8778 36.6867C38.3549 37.1572 37.835 37.6104 37.3324 38.0809C37.2594 38.1785 37.2243 38.2993 37.2337 38.4208C37.2337 39.4287 37.2337 40.4367 37.2337 41.4707H36.3129V38.8565C36.1647 38.9378 36.0689 38.9872 35.9759 39.0424C34.9535 39.6679 33.8432 40.1368 32.682 40.4338C32.5406 40.4671 32.3934 40.4671 32.2521 40.4338C31.0785 40.1424 29.9567 39.6721 28.9262 39.0395C28.8507 38.993 28.7664 38.9553 28.6357 38.8914V41.4824H27.6597V41.1367C27.6597 40.2333 27.6597 39.3329 27.6597 38.4295C27.6702 38.2621 27.596 38.1007 27.4622 37.9996C24.7852 35.8223 23.05 32.6973 22.6171 29.2739C22.5933 29.1581 22.5283 29.0549 22.4341 28.9834C21.1817 28.1215 20.4556 26.6802 20.5083 25.1608C20.5199 23.418 20.5199 21.6674 20.5083 19.9091C20.5083 18.1023 20.6652 16.3334 21.493 14.6515L18.719 13.0772C19.1198 12.8283 19.5349 12.6033 19.9622 12.4033C21.0109 12.0081 21.8385 11.1805 22.2337 10.1318C22.4248 9.70893 22.6372 9.29594 22.8698 8.89441L22.9337 8.89441L24.2031 11.2734C24.2728 11.2269 24.3077 11.2066 24.3396 11.1804C25.9058 9.89684 27.8373 9.14052 29.8586 9.01931L31.2761 8.89441H33.4401ZM31.157 19.5896C30.5211 20.1962 29.7194 20.6006 28.8536 20.7514C28.351 20.827 27.8456 20.8851 27.3402 20.9373C26.4219 20.9993 25.5531 21.3757 24.8799 22.0034C24.4152 22.4546 23.9562 22.9116 23.5031 23.3744C23.432 23.456 23.3875 23.5573 23.3753 23.6649C23.2246 25.6047 23.3124 27.5558 23.6367 29.4743C23.9129 31.2474 24.5283 32.9506 25.4492 34.4907C27.012 37.0265 29.3067 38.5776 32.1301 39.3968C32.3598 39.4622 32.6033 39.4622 32.833 39.3968C34.4746 38.9083 35.9862 38.0587 37.2569 36.9103C37.5851 36.6199 37.8901 36.2945 38.23 35.9605L35.9266 34.6941C36.644 34.299 37.2976 33.9098 37.9773 33.5786C38.4283 33.3705 38.79 33.0078 38.9968 32.5562C39.3309 31.8736 39.7201 31.22 40.1094 30.5084C40.333 30.9092 40.5276 31.2636 40.7455 31.6499C40.7891 31.5395 40.821 31.4727 40.8442 31.4059C41.2567 30.0999 41.4654 28.738 41.4629 27.3684C41.4978 25.9683 41.4629 24.5682 41.4629 23.1682C41.4617 23.0107 41.4271 22.8552 41.3613 22.7121C40.0892 19.9423 37.6872 17.8535 34.7676 16.9782C34.1576 16.7865 33.5214 16.6877 32.8795 16.5338C32.7288 17.3615 32.3844 18.1419 31.8745 18.8111L31.1105 18.2302C31.9529 17.1583 32.011 15.9325 31.9819 14.669H32.6558C32.7401 14.669 32.8214 14.669 32.9463 14.6864C32.9463 14.9188 32.9463 15.1395 32.9463 15.3574C32.9463 15.5752 33.0015 15.6188 33.1903 15.6479C35.74 15.9756 38.1069 17.1463 39.9147 18.9738C40.3185 19.3746 40.6787 19.819 41.0592 20.2431C41.0592 20.2228 41.0824 20.2024 41.0795 20.1879C41.0185 19.9643 40.9633 19.7377 40.8907 19.5169C40.1471 17.2832 38.8574 15.5462 36.6092 14.6022C34.9477 13.9134 33.1409 13.6489 31.3516 13.8324C29.865 13.939 28.4275 14.4098 27.1659 15.2034C25.5538 16.2404 24.6272 17.7799 24.0114 19.5431C23.738 20.332 23.5624 21.1514 23.4885 21.983L24.0056 21.4834C24.8346 20.6157 25.9526 20.0815 27.1485 19.9817C28.3685 19.9004 29.5623 19.7638 30.5267 18.8576L31.157 19.5896ZM27.0904 13.0772C26.2771 13.5216 25.5218 13.9486 24.7666 14.3524C24.5161 14.4792 24.3125 14.6827 24.1857 14.9333C23.7819 15.7001 23.3549 16.4554 22.9192 17.2571L22.1146 15.8047C21.7117 16.8164 21.498 17.8936 21.4843 18.9825C21.4669 20.3186 21.4843 21.6548 21.4843 22.991C21.4843 23.0839 21.4843 23.174 21.5017 23.264H22.3731C22.7101 18.1169 24.6969 14.2594 30.1433 12.9378C29.4903 12.0715 29.4294 10.8954 29.9893 9.96625C28.5544 9.91687 25.7804 11.0148 25.0251 11.9269L27.0904 13.0772ZM37.9395 34.6766C38.3433 34.9003 38.7093 35.0833 39.0549 35.3011C39.2273 35.4133 39.3738 35.5609 39.4848 35.7339C39.7027 36.0796 39.8857 36.4485 40.1064 36.8464C40.2953 36.5095 40.4841 36.2161 40.6264 35.8995C40.7659 35.5784 41.024 35.3234 41.3468 35.1879C41.6372 35.0484 41.9277 34.8683 42.2763 34.6766C41.919 34.4791 41.6169 34.2845 41.2945 34.1393C41.004 34.0087 40.7715 33.7762 40.6409 33.4857C40.487 33.1633 40.3011 32.8554 40.1064 32.5039C39.8828 32.9106 39.6969 33.294 39.4645 33.6425C39.3582 33.8064 39.2174 33.9452 39.052 34.0492C38.7151 34.2671 38.3491 34.4559 37.9395 34.6766ZM25.0803 13.0772C24.6766 12.8564 24.3077 12.6734 23.962 12.4527C23.7879 12.342 23.6394 12.1954 23.5263 12.0228C23.3055 11.6742 23.1226 11.2995 22.9076 10.8987C22.681 11.314 22.498 11.6858 22.2802 12.0344C22.1744 12.1993 22.0348 12.3399 21.8706 12.4469C21.5162 12.6676 21.1444 12.8535 20.7349 13.0772C21.1415 13.3009 21.5133 13.4809 21.859 13.7017C22.0316 13.8148 22.1782 13.9633 22.2889 14.1374C22.5067 14.4831 22.6897 14.8491 22.9076 15.2499C23.1342 14.8374 23.3259 14.4598 23.5466 14.088C23.6469 13.9316 23.7809 13.7996 23.9388 13.7017C24.2932 13.4926 24.6708 13.3009 25.0803 13.0772ZM42.5145 24.2894V27.6966C43.3859 26.8746 43.5602 25.6982 43.4091 24.2894H42.5145ZM22.4022 24.2894H21.4959C21.3158 25.7417 21.7486 27.3335 22.4022 27.6501L22.4022 24.2894Z" fill="black"/>
<path d="M48.7858 29.0153H47.8127V28.0655H48.7858V29.0153Z" fill="black"/>
<path d="M48.7858 34.7464H47.8127V33.7907H48.7858V34.7464Z" fill="black"/>
<path d="M18.1381 17.6085C18.1381 17.8816 18.1381 18.111 18.1381 18.3405C18.1381 18.5032 18.0829 18.5584 17.9174 18.57C17.165 18.6135 17.165 18.6194 17.1534 17.867C17.1534 17.7973 17.1534 17.7247 17.1389 17.6172H16.2268V16.6296H17.1476V15.6769H18.1294V16.6035H19.0938C19.0938 16.894 19.0938 17.1844 19.0938 17.4488C19.0938 17.501 18.9747 17.5824 18.905 17.5882C18.661 17.6085 18.4286 17.6085 18.1381 17.6085Z" fill="black"/>
<path d="M46.7903 30.9179V31.8707H45.855V32.8089H44.8936V31.8852H43.9553V30.9266H44.879V29.9826H45.8376V30.9179H46.7903Z" fill="black"/>
<path d="M43.7432 15.491L44.0627 16.4496L43.1419 16.7139L42.8514 15.8425L43.7432 15.491Z" fill="black"/>
<path d="M32.8388 11.8281H31.9268V10.8928H32.8388V11.8281Z" fill="black"/>
<path d="M25.1443 24.1906L24.4907 23.4964C24.993 23.0038 25.6161 22.6521 26.2975 22.4768C26.5302 22.4041 26.7713 22.3621 27.0149 22.3519C28.3395 22.3519 29.6611 22.3519 31.0089 22.3519V23.3018H30.6691C29.6205 23.3018 28.569 23.3018 27.5203 23.3018C26.6429 23.2778 25.7906 23.5966 25.1443 24.1906Z" fill="black"/>
<path d="M35.6013 33.2097C33.8759 34.6621 30.8404 34.5459 29.3329 33.2097L29.8441 32.4719C31.5869 33.5263 33.3298 33.4711 35.0726 32.4719L35.6013 33.2097Z" fill="black"/>
<path d="M40.4376 23.4935L39.7782 24.1906C38.9533 23.4063 37.9512 23.2611 36.8735 23.2931C36.0021 23.3163 35.1597 23.2931 34.2999 23.2931H33.9456V22.3316H34.4975C35.5693 22.3316 36.6382 22.3142 37.7072 22.3316C38.7318 22.3583 39.7079 22.7737 40.4376 23.4935Z" fill="black"/>
<path d="M25.522 26.3227L26.3934 25.9567C26.7191 26.6561 27.4248 27.0995 28.1963 27.0895C28.9678 27.0794 29.6617 26.6179 29.9691 25.9102C30.0359 25.9305 30.1085 25.948 30.1724 25.9741C30.3903 26.0584 30.6023 26.1484 30.8144 26.2355C30.5413 27.2144 29.4811 27.9958 28.3628 28.0539C27.1399 28.1571 25.9908 27.4569 25.522 26.3227Z" fill="black"/>
<path d="M34.0938 26.3226L34.9216 25.9625C36.1009 27.502 37.4894 27.5049 38.4857 25.9625L38.9098 26.1455L39.3077 26.3197C39.1131 27.1912 38.0006 27.9987 36.9113 28.0626C35.6919 28.1644 34.5489 27.4585 34.0938 26.3226Z" fill="black"/>
<path d="M26.251 18.5003V17.5795H27.1689V18.5003H26.251Z" fill="black"/>
<path d="M28.1624 18.5003V17.5795H29.0802V18.5003H28.1624Z" fill="black"/>
<defs>
<filter id="filter0_d_201_943" x="0.516235" y="0.22998" width="64.0905" height="57.8815" filterUnits="userSpaceOnUse" color-interpolation-filters="sRGB">
<feFlood flood-opacity="0" result="BackgroundImageFix"/>
<feColorMatrix in="SourceAlpha" type="matrix" values="0 0 0 0 0 0 0 0 0 0 0 0 0 0 0 0 0 0 127 0" result="hardAlpha"/>
<feOffset dy="3"/>
<feGaussianBlur stdDeviation="1.5"/>
<feComposite in2="hardAlpha" operator="out"/>
<feColorMatrix type="matrix" values="0 0 0 0 0 0 0 0 0 0 0 0 0 0 0 0 0 0 0.160784 0"/>
<feBlend mode="normal" in2="BackgroundImageFix" result="effect1_dropShadow_201_943"/>
<feBlend mode="normal" in="SourceGraphic" in2="effect1_dropShadow_201_943" result="shape"/>
</filter>
</defs>
</svg>
