<svg width="25" height="24" viewBox="0 0 25 24" fill="none" xmlns="http://www.w3.org/2000/svg">
<g clip-path="url(#clip0_201_800)">
<g filter="url(#filter0_b_201_800)">
<path d="M17.6342 23.2686C17.1734 22.7808 16.9421 22.2048 16.9421 21.5415C16.9421 20.8782 17.1734 20.3121 17.6342 19.8441C18.0959 19.3752 18.6539 19.1412 19.3073 19.1412C19.9616 19.1412 20.5286 19.3752 21.0092 19.8441C21.4907 20.3121 21.731 20.8782 21.731 21.5415C21.731 22.2048 21.4907 22.7808 21.0092 23.2686C20.5286 23.7564 19.9616 24.0003 19.3073 24.0003C18.6539 24.0003 18.0959 23.7564 17.6342 23.2686ZM5.8361 23.2686C5.3555 22.7808 5.1152 22.2048 5.1152 21.5415C5.1152 20.8782 5.3465 20.3121 5.8073 19.8441C6.3077 19.3752 6.8846 19.1412 7.5389 19.1412C8.1923 19.1412 8.7503 19.3752 9.2111 19.8441C9.6728 20.3121 9.9041 20.8782 9.9041 21.5415C9.9041 22.2048 9.6728 22.7808 9.2111 23.2686C8.7503 23.7564 8.1923 24.0003 7.5389 24.0003C6.8846 24.0003 6.3176 23.7564 5.8361 23.2686ZM7.7117 17.9118C6.9422 17.9118 6.3176 17.6976 5.8361 17.2683C5.3555 16.839 5.1152 16.2342 5.1152 15.4539C5.1152 14.985 5.2115 14.5953 5.4041 14.283L7.1924 11.2977L2.9228 2.4588H0.5V0H4.4231L5.5193 2.4588H23.2889C23.5958 2.4588 23.8748 2.5758 24.125 2.8098C24.3752 3.0438 24.5003 3.3174 24.5003 3.6297C24.5003 3.8637 24.4616 4.0581 24.3842 4.2147L20.0579 11.7657C19.6349 12.6243 18.9419 13.0536 17.9807 13.0536H9.0383L7.8269 14.9265C7.7504 15.1218 7.7117 15.2388 7.7117 15.2784C7.7117 15.4728 7.808 15.5709 7.9997 15.5709H21.731V17.9118H7.7117Z" fill="#8E8E93"/>
</g>
</g>
<defs>
<filter id="filter0_b_201_800" x="-9.5" y="-10" width="44.0002" height="44.0002" filterUnits="userSpaceOnUse" color-interpolation-filters="sRGB">
<feFlood flood-opacity="0" result="BackgroundImageFix"/>
<feGaussianBlur in="BackgroundImageFix" stdDeviation="5"/>
<feComposite in2="SourceAlpha" operator="in" result="effect1_backgroundBlur_201_800"/>
<feBlend mode="normal" in="SourceGraphic" in2="effect1_backgroundBlur_201_800" result="shape"/>
</filter>
<clipPath id="clip0_201_800">
<rect width="24" height="24" fill="white" transform="translate(0.5)"/>
</clipPath>
</defs>
</svg>
