<svg width="19" height="13" viewBox="0 0 19 13" fill="none" xmlns="http://www.w3.org/2000/svg">
<g filter="url(#filter0_b_201_1476)">
<path d="M16.2932 12.9996H2.7077C1.49037 12.9996 0.5 12.0024 0.5 10.7766V2.2239C0.5 0.99764 1.49037 0 2.7077 0H16.2932C17.51 0 18.5 0.99764 18.5 2.2239V10.7766C18.5 12.0024 17.51 12.9996 16.2932 12.9996ZM2.7077 1.026C2.05214 1.026 1.5188 1.56338 1.5188 2.2239V10.7766C1.5188 11.4371 2.05214 11.9745 2.7077 11.9745H16.2932C16.9488 11.9745 17.4821 11.4371 17.4821 10.7766V2.2239C17.4821 1.56338 16.9488 1.026 16.2932 1.026H2.7077ZM9.5162 8.2962C9.23182 8.2962 8.95919 8.20844 8.7278 8.0424L3.2603 4.1103C3.03167 3.94648 2.97838 3.62551 3.1415 3.3948C3.23708 3.25982 3.39219 3.17924 3.55641 3.17924C3.66322 3.17924 3.7656 3.2127 3.8525 3.276L9.3191 7.2063C9.37716 7.24796 9.44535 7.26998 9.51631 7.26998C9.58768 7.26998 9.65611 7.24765 9.7142 7.2054L15.1466 3.2769C15.2335 3.21327 15.336 3.17964 15.443 3.17964C15.6069 3.17964 15.7619 3.25974 15.8576 3.3939C16.022 3.62418 15.9695 3.94515 15.7406 4.1094L10.3091 8.0388C10.0772 8.20719 9.80305 8.2962 9.5162 8.2962Z" fill="#EBC00D"/>
</g>
<defs>
<filter id="filter0_b_201_1476" x="-1.71549" y="-2.21549" width="22.431" height="17.4306" filterUnits="userSpaceOnUse" color-interpolation-filters="sRGB">
<feFlood flood-opacity="0" result="BackgroundImageFix"/>
<feGaussianBlur in="BackgroundImageFix" stdDeviation="1.10775"/>
<feComposite in2="SourceAlpha" operator="in" result="effect1_backgroundBlur_201_1476"/>
<feBlend mode="normal" in="SourceGraphic" in2="effect1_backgroundBlur_201_1476" result="shape"/>
</filter>
</defs>
</svg>
