<svg width="16" height="28" viewBox="0 0 16 28" fill="none" xmlns="http://www.w3.org/2000/svg">
<path d="M4.9703 21.8212C4.9703 20.0807 4.96304 18.3407 4.97689 16.6008C4.97689 16.2757 4.89181 16.1576 4.5528 16.1649C3.64525 16.1853 2.73638 16.1741 1.82817 16.1708C1.07825 16.1708 0.904785 15.9894 0.904785 15.2356C0.904785 13.9767 0.904785 12.718 0.904785 11.4596C0.904785 10.7737 1.09738 10.585 1.78925 10.583C2.71923 10.583 3.64986 10.5731 4.57984 10.5877C4.87598 10.5923 4.98217 10.5019 4.97557 10.1919C4.96106 9.16368 4.93534 8.13279 4.98217 7.10652C5.07451 5.10147 5.77759 3.36947 7.43176 2.12951C8.50816 1.32155 9.75604 0.967368 11.0857 0.931092C12.2887 0.898114 13.4931 0.91988 14.6968 0.923178C15.2798 0.923178 15.4935 1.13292 15.4962 1.71465C15.5014 2.94054 15.5014 4.16644 15.4962 5.39233C15.4962 5.96351 15.2983 6.16995 14.7284 6.1838C13.9297 6.20161 13.1303 6.19303 12.3316 6.20029C11.0785 6.2115 10.7091 6.58085 10.7051 7.83203C10.7051 8.6235 10.7144 9.40837 10.6966 10.1959C10.69 10.5026 10.8021 10.5916 11.0976 10.5916C12.2023 10.5784 13.3078 10.585 14.4132 10.587C15.1387 10.587 15.3102 10.7539 15.3108 11.4682C15.3108 12.7596 15.3108 14.051 15.3108 15.3424C15.3108 16.0059 15.1459 16.1708 14.4706 16.1741C13.3539 16.1794 12.2373 16.1866 11.1213 16.1695C10.7863 16.1642 10.6926 16.2777 10.6933 16.6041C10.7034 19.9424 10.7054 23.2804 10.6992 26.6182C10.6992 26.7389 10.6992 26.8589 10.6992 26.9796C10.6887 27.6873 10.5046 27.872 9.79562 27.8733C8.45979 27.8733 7.12441 27.8733 5.78946 27.8733C5.15695 27.8733 4.97227 27.6853 4.97161 27.0462C4.96942 25.3015 4.96898 23.5598 4.9703 21.8212Z" fill="#3C6AD6"/>
</svg>
