<svg width="28" height="29" viewBox="0 0 28 29" fill="none" xmlns="http://www.w3.org/2000/svg">
<path d="M19.0044 8.01189C17.5694 6.9056 15.8089 6.30458 13.997 6.30232V0.913086C17.0785 0.913086 20.0671 1.95995 22.474 3.88193C22.672 4.04159 22.7944 4.27653 22.8118 4.53023C22.8293 4.78392 22.7402 5.03341 22.566 5.21867C21.8306 6.01014 20.6493 7.2633 19.9845 7.94396C19.7226 8.21264 19.3008 8.24187 19.0044 8.01189Z" fill="#D93E21"/>
<path d="M13.9561 0.913086V6.30232C10.9999 6.30845 8.27328 7.89688 6.80984 10.4654L2.14413 7.7672C4.57054 3.53266 9.07569 0.918469 13.9561 0.913086Z" fill="#F94B26"/>
<path d="M5.72817 14.5515C5.72583 15.9697 6.09124 17.3643 6.78873 18.5992L2.11973 21.2987C-0.258658 17.1149 -0.25866 11.988 2.11973 7.8042L6.78873 10.5031C6.09142 11.7383 5.72602 13.1331 5.72817 14.5515Z" fill="#FED502"/>
<path d="M13.9561 22.8005V28.1904C9.07571 28.185 4.57054 25.5708 2.14413 21.3363L6.80984 18.6367C8.27311 21.2055 10.9998 22.7943 13.9561 22.8005Z" fill="#2FB347"/>
<path d="M20.9092 26.3001C18.8166 27.5375 16.4301 28.1904 13.999 28.1904V22.8005C15.4269 22.7992 16.8298 22.4254 18.0692 21.7162L20.9092 26.3001Z" fill="#27993D"/>
<path d="M27.6162 14.5514C27.6223 19.3645 25.0862 23.823 20.9461 26.2777L18.106 21.6951C19.7208 20.7596 20.972 19.3057 21.6564 17.5696H15.4566C14.9869 17.567 14.6067 17.1871 14.6038 16.7174V13.0747C14.6067 12.605 14.9869 12.2251 15.4566 12.2225H26.4185C26.829 12.2229 27.2198 12.3989 27.4922 12.706C27.575 13.3176 27.6164 13.9342 27.6162 14.5514Z" fill="#167EE6"/>
</svg>
