<svg width="65" height="59" viewBox="0 0 65 59" fill="none" xmlns="http://www.w3.org/2000/svg">
<g filter="url(#filter0_d_201_948)">
<path d="M43.8944 1.72998H20.8405C19.2355 1.73101 17.7527 2.58771 16.9502 3.97774L5.42328 23.9266C4.61704 25.3141 4.61704 27.0274 5.42328 28.4149L16.9502 48.3638C17.7527 49.7538 19.2355 50.6105 20.8405 50.6115H43.8944C45.5012 50.6101 46.9859 49.7539 47.7919 48.3638L59.3044 28.3861C60.1106 26.9986 60.1106 25.2853 59.3044 23.8978L47.7919 3.97774C46.9859 2.58766 45.5012 1.7314 43.8944 1.72998Z" fill="white"/>
<path d="M43.8944 1.72998H20.8405C19.2355 1.73101 17.7527 2.58771 16.9502 3.97774L5.42328 23.9266C4.61704 25.3141 4.61704 27.0274 5.42328 28.4149L16.9502 48.3638C17.7527 49.7538 19.2355 50.6105 20.8405 50.6115H43.8944C45.5012 50.6101 46.9859 49.7539 47.7919 48.3638L59.3044 28.3861C60.1106 26.9986 60.1106 25.2853 59.3044 23.8978L47.7919 3.97774C46.9859 2.58766 45.5012 1.7314 43.8944 1.72998Z" stroke="#EBBF0C" stroke-width="3"/>
</g>
<path d="M25.1503 22.1064C24.7379 20.8022 24.2963 19.5618 23.9507 18.2838C23.7038 17.3775 23.5731 16.4393 23.4046 15.5098C23.3087 14.9724 23.6341 14.6209 24.1453 14.7371C26.6346 15.3035 28.7667 16.4422 30.2452 18.6091C30.8048 19.4605 31.1908 20.4141 31.381 21.4151C31.4181 21.5193 31.471 21.6173 31.5378 21.7055C31.622 21.6213 31.744 21.5545 31.7818 21.4528C32.3395 20.0266 32.1275 18.6062 31.7324 17.1887C31.7324 17.1422 31.6976 17.0957 31.686 17.0493C31.4971 16.3086 31.1747 15.8874 30.2743 15.7422C27.8314 15.3703 26.1728 13.9093 25.2433 11.6233C24.9906 11.0046 25.2229 10.656 25.8881 10.6589C27.1637 10.6295 28.4295 10.8876 29.5916 11.4141C31.0992 12.1287 31.9851 13.2964 32.1071 14.9927C32.1122 15.0644 32.1279 15.1348 32.1536 15.2019C32.5051 16.111 32.8682 17.026 33.208 17.8974C33.5798 17.1393 34.0446 16.3028 34.3902 15.4197C34.55 15.0102 34.4571 14.5076 34.5122 14.0545C34.7185 12.4279 35.3081 10.9755 36.6095 9.92111C37.1313 9.53082 37.6979 9.20416 38.2971 8.94803C38.4666 8.86658 38.6661 8.87855 38.8246 8.97968C38.9831 9.08082 39.078 9.25673 39.0756 9.44474C39.0756 11.5507 38.5324 13.4416 36.8767 14.8736C36.6259 15.1022 36.3467 15.2974 36.0459 15.4546C35.7067 15.6134 35.44 15.8946 35.2994 16.2418C34.5732 17.9033 33.8442 19.5638 33.1122 21.2233C33.0831 21.2872 33.0686 21.357 33.025 21.4964C33.1028 21.4448 33.1766 21.3875 33.2458 21.325C34.6788 19.9453 36.2839 18.7561 38.0212 17.7871C38.3116 17.6186 38.6021 17.5169 38.8926 17.7871C39.183 18.0572 39.0756 18.3157 38.9478 18.6178C38.451 19.7797 37.9718 20.9416 37.4954 22.1035C37.4605 22.1984 37.4314 22.2954 37.4083 22.3939L39.8192 20.4333C40.4844 19.8901 41.1466 19.3411 41.8205 18.8037C41.9794 18.6972 42.0603 18.5069 42.0268 18.3186C41.8028 16.2883 43.2339 14.448 45.2568 14.1649C47.0897 13.8541 48.9487 15.1089 49.4367 16.9854C49.7669 18.2643 49.4048 19.6229 48.4818 20.5679C47.5588 21.5128 46.2092 21.9068 44.9228 21.6068C44.7678 21.5872 44.611 21.6244 44.4812 21.7113C44.1908 21.9263 43.9003 22.1819 43.5604 22.4607C44.2692 22.6002 44.9286 22.7018 45.5734 22.8674C46.4013 23.0824 47.2291 23.3176 48.0366 23.6023C48.4056 23.753 48.7502 23.9576 49.0591 24.2094C49.3956 24.462 49.5823 24.8671 49.5558 25.287C49.5384 26.1091 49.5151 26.934 49.5558 27.756C49.62 28.4398 49.2561 29.0923 48.6408 29.3972C48.4584 29.4892 48.3453 29.678 48.3503 29.8823C48.0599 33.5015 46.4855 36.5021 43.8567 38.9682C42.6613 40.1295 41.1898 40.9672 39.581 41.4024C39.4293 41.4422 39.273 41.4617 39.1162 41.4605C35.2036 41.4605 31.2909 41.4982 27.3783 41.4314C26.655 41.4314 25.8939 41.0857 25.2259 40.7488C22.4083 39.3226 20.5086 37.025 19.2189 34.1842C18.5935 32.7915 18.2282 31.2961 18.1412 29.7719C18.1075 29.6433 18.0344 29.5285 17.9321 29.4437C17.6859 29.2548 17.4574 29.0438 17.2495 28.8134C17.0953 28.5863 17.0078 28.3207 16.9968 28.0465C16.9794 27.1519 17.0026 26.2543 16.9794 25.3567C16.9314 24.8483 17.1756 24.3565 17.6097 24.0874C18.1598 23.7437 18.7438 23.4575 19.3525 23.2334C21.1476 22.6176 23.0212 22.362 24.8947 22.1383L25.1503 22.1064ZM47.2552 30.0624L46.8283 30.1699C46.0759 30.347 45.3294 30.5533 44.5684 30.6985C42.3413 31.0996 40.09 31.3519 37.8294 31.4537C34.8179 31.6309 31.7986 31.6309 28.787 31.4537C28.5351 31.4082 28.2815 31.524 28.1509 31.7442C27.3899 32.9235 26.6317 34.1028 25.8475 35.2647C25.7154 35.4497 25.5164 35.5759 25.2927 35.6162C25.074 35.5909 24.8802 35.4638 24.7698 35.2734C24.1161 33.9979 23.6746 32.6244 23.4627 31.2068C23.4336 30.9861 23.3552 30.9164 23.1345 30.8786C22.1817 30.7072 21.2348 30.5126 20.2907 30.2977C20.0003 30.2367 19.7098 30.1408 19.2625 30.0072C19.489 30.9367 19.6197 31.7907 19.8986 32.5895C20.9675 35.6481 22.8033 38.0852 25.708 39.6479C26.4843 40.0714 27.3567 40.2875 28.241 40.2753C31.5494 40.2376 34.855 40.2318 38.1635 40.2753C39.2066 40.2952 40.2342 40.0214 41.1292 39.4853C43.9323 37.8906 45.7361 35.4419 46.7179 32.3832C46.9561 31.6571 47.0664 30.8902 47.2552 30.0624ZM48.3939 26.6871C47.8769 26.8788 47.4121 27.0763 46.927 27.2216C44.4435 27.9124 41.8892 28.3168 39.3137 28.427C37.0103 28.5723 34.6952 28.5897 32.386 28.6681C32.2685 28.6682 32.1526 28.694 32.0461 28.7436C31.6162 28.9586 31.1951 29.1939 30.7652 29.4059C30.2779 29.6237 29.8378 29.9345 29.4697 30.3209C29.6265 30.3209 29.7078 30.3412 29.7892 30.3441C32.8023 30.471 35.8202 30.4293 38.8287 30.2192C41.1554 30.1003 43.467 29.7746 45.7361 29.2462C46.5306 29.012 47.3072 28.7208 48.0599 28.3747C48.2304 28.2767 48.3478 28.1071 48.3794 27.9129C48.4075 27.5049 48.4123 27.0956 48.3939 26.6871ZM43.5169 21.0316L42.4247 19.7913L42.1488 20.0092C40.2123 21.5913 38.2758 23.1772 36.3393 24.7671C35.9297 25.0953 35.5696 25.4497 35.1455 25.7808C34.4116 26.3399 33.5537 26.7136 32.6445 26.8701L32.7055 27.483C33.5188 27.483 34.306 27.5004 35.0903 27.483C35.3252 27.4681 35.5505 27.3842 35.738 27.2419C37.5622 25.807 39.3786 24.3546 41.1873 22.8848C41.3819 22.7309 41.5271 22.5101 41.7247 22.3591C42.3172 21.9001 42.9214 21.4673 43.5169 21.0316ZM30.3411 23.5936C30.5386 19.6403 28.0609 17.026 24.6769 16.1081C24.7785 16.6194 24.8686 17.1161 24.9673 17.607C25.3449 19.2917 25.8387 20.9271 26.8147 22.3823C27.5002 23.4077 28.4966 24.221 29.429 24.4621C29.3796 24.3517 29.3389 24.253 29.2954 24.1571C28.5438 22.6227 27.6147 21.1818 26.5272 19.8639C26.2367 19.4863 26.2222 19.1407 26.5272 18.9112C26.8322 18.6817 27.172 18.7485 27.4305 19.1203C28.2613 20.3113 29.0717 21.5138 29.8792 22.7193C30.0303 22.9633 30.1494 23.2392 30.3411 23.5936ZM25.3508 33.7252C25.8562 32.9758 26.3064 32.2729 26.8031 31.5786C27.8982 30.1001 29.0833 28.7291 30.9046 28.093C31.5756 27.8519 31.6656 27.3813 31.3171 26.7452C31.2934 26.6644 31.2326 26.5997 31.1534 26.571C31.0743 26.5423 30.9861 26.5531 30.9162 26.6C29.1792 27.3174 27.5438 28.1859 26.7973 30.0972C26.7474 30.2245 26.649 30.3267 26.5236 30.3812C26.3982 30.4357 26.2563 30.4381 26.1292 30.3877C25.8524 30.3293 25.6714 30.0623 25.7197 29.7835C25.7534 29.5816 25.817 29.3858 25.9085 29.2026C26.3133 28.3694 26.9107 27.6445 27.6513 27.088C27.9214 26.8701 28.2061 26.6726 28.482 26.4634L28.4501 26.3792C27.8691 26.539 27.2882 26.6551 26.7566 26.8672C25.5047 27.3523 24.7408 28.2498 24.5926 29.618C24.4271 31.05 24.8511 32.3658 25.3508 33.7252ZM27.3841 24.7729C26.9484 24.3023 26.5446 23.9015 26.1873 23.4629C26.0605 23.2723 25.8305 23.178 25.6064 23.2247C24.6013 23.3728 23.5905 23.4861 22.5884 23.6546C21.3148 23.8226 20.0699 24.1627 18.8878 24.6654C18.6309 24.805 18.3817 24.9582 18.1412 25.1244C18.5828 25.672 19.2869 25.9367 19.9799 25.8157C21.9261 25.5078 23.8781 25.2347 25.83 24.9733C26.3296 24.9007 26.8554 24.8426 27.3812 24.7729H27.3841ZM32.1129 25.7227C33.7455 25.6204 35.177 24.5969 35.8019 23.0853C36.2435 22.0541 36.6559 21.0113 37.08 19.9714C37.1067 19.8758 37.128 19.7789 37.1439 19.6809C36.807 19.9162 36.5252 20.1021 36.2551 20.3025C35.0602 21.1364 33.9928 22.1393 33.086 23.2799C32.5151 23.9732 32.174 24.8269 32.11 25.7227L32.1129 25.7227ZM48.3794 25.2609L48.3997 25.0866C48.0047 24.8978 47.6183 24.6741 47.2088 24.526C45.7027 24.0369 44.1517 23.6993 42.5787 23.5181C42.4033 23.5097 42.2306 23.5632 42.0907 23.6691C41.7159 23.9363 41.3674 24.25 41.0101 24.5405C40.8591 24.6625 40.7196 24.7932 40.6267 24.8658C42.5089 25.2057 44.4028 25.4933 46.2822 25.9086C47.1884 26.0945 47.7345 25.6472 48.3736 25.2609H48.3794ZM23.7386 28.0814C21.8506 27.7735 19.9451 27.483 18.1412 26.661C18.1634 26.9209 18.1634 27.1823 18.1412 27.4423C18.0251 28.0756 18.3417 28.4125 18.8848 28.6042C18.9284 28.6216 18.972 28.6449 19.0156 28.6652C20.4069 29.2462 21.8767 29.496 23.3465 29.7312L23.7386 28.0814ZM44.6323 15.6143C45.3614 17.1887 46.41 18.4435 48.0599 19.129C48.635 18.0988 48.4284 16.8085 47.5602 16.0094C46.7585 15.2513 45.463 15.0654 44.6323 15.6143ZM43.7028 16.3957C42.9243 17.2816 43.0115 18.7747 43.8742 19.6926C44.7369 20.6104 46.2705 20.8109 47.2262 20.0615C45.1551 18.7195 44.8647 18.4145 43.7028 16.3957ZM26.684 11.8847C27.2824 13.3371 29.4464 14.7487 30.8436 14.6238C30.7129 13.0727 28.8684 11.9835 26.684 11.8847ZM37.5303 27.2971C39.7499 27.2668 41.9636 27.0589 44.1501 26.6755C44.0601 26.6174 44.0339 26.5825 44.0049 26.5796C42.4363 26.3879 40.8649 26.1962 39.2963 26.0161C39.19 26.0172 39.0873 26.0552 39.0058 26.1236C38.5091 26.507 38.0211 26.9021 37.5303 27.2971ZM35.6945 14.2607C36.7663 13.7757 37.8991 11.7656 37.8207 10.4846C36.6879 11.0394 35.7293 12.7823 35.6945 14.2607ZM25.403 26.1875L22.2078 26.568C22.9225 26.7467 23.647 26.8835 24.3777 26.9776C24.4478 26.9814 24.5169 26.9598 24.5723 26.9166C24.8424 26.6929 25.1126 26.4605 25.403 26.1875Z" fill="black"/>
<path d="M38.1286 39.1425C37.0697 39.1234 36.035 38.8226 35.1309 38.2711C34.8639 38.1089 34.5574 38.0235 34.245 38.0242C33.3713 38.0282 32.5051 37.8624 31.6946 37.5362C31.538 37.4724 31.3865 37.3967 31.2415 37.3096C30.9651 37.1533 30.8655 36.804 31.0178 36.5254C31.0888 36.3905 31.2121 36.2908 31.3587 36.2496C31.5054 36.2084 31.6626 36.2293 31.7934 36.3075C32.6264 36.7059 33.5427 36.8991 34.4657 36.871C34.5947 36.8778 34.7214 36.8352 34.8201 36.7519C35.8687 35.5261 37.2223 34.7186 38.6427 34.0389C39.9818 33.3941 41.3702 32.8538 42.7355 32.27C43.0259 32.1509 43.2961 32.0811 43.5488 32.3222C43.8015 32.5633 43.7347 32.816 43.6592 33.0978C43.2612 34.5792 42.75 36.0025 41.7885 37.2341C40.8271 38.4657 39.6361 39.128 38.1286 39.1425ZM36.7721 36.5283L36.8011 36.6183C37.2514 36.4876 37.7045 36.3627 38.1518 36.2262C38.5991 36.0896 38.9477 36.171 39.0697 36.5166C39.2062 36.8972 39.0145 37.1818 38.4888 37.3445C38.0966 37.4694 37.7016 37.5769 37.3094 37.6931L36.9202 37.8121C38.4859 38.2391 39.7175 37.8615 40.7138 36.7258C41.2648 36.0659 41.6963 35.3149 41.989 34.5066C42.079 34.2771 42.1545 34.0447 42.2794 33.7165C40.2781 34.4834 38.4336 35.3257 36.7721 36.5166V36.5283Z" fill="black"/>
<defs>
<filter id="filter0_d_201_948" x="0.318604" y="0.22998" width="64.0905" height="57.8815" filterUnits="userSpaceOnUse" color-interpolation-filters="sRGB">
<feFlood flood-opacity="0" result="BackgroundImageFix"/>
<feColorMatrix in="SourceAlpha" type="matrix" values="0 0 0 0 0 0 0 0 0 0 0 0 0 0 0 0 0 0 127 0" result="hardAlpha"/>
<feOffset dy="3"/>
<feGaussianBlur stdDeviation="1.5"/>
<feComposite in2="hardAlpha" operator="out"/>
<feColorMatrix type="matrix" values="0 0 0 0 0 0 0 0 0 0 0 0 0 0 0 0 0 0 0.160784 0"/>
<feBlend mode="normal" in2="BackgroundImageFix" result="effect1_dropShadow_201_948"/>
<feBlend mode="normal" in="SourceGraphic" in2="effect1_dropShadow_201_948" result="shape"/>
</filter>
</defs>
</svg>
