<svg width="65" height="59" viewBox="0 0 65 59" fill="none" xmlns="http://www.w3.org/2000/svg">
<g filter="url(#filter0_d_201_953)">
<path d="M44.487 1.72998H21.4332C19.8281 1.73101 18.3454 2.58771 17.5428 3.97774L6.01594 23.9266C5.20969 25.3141 5.20969 27.0274 6.01594 28.4149L17.5428 48.3638C18.3454 49.7538 19.8281 50.6105 21.4332 50.6115H44.487C46.0938 50.6101 47.5786 49.7539 48.3845 48.3638L59.897 28.3861C60.7033 26.9986 60.7033 25.2853 59.897 23.8978L48.3845 3.97774C47.5786 2.58766 46.0938 1.7314 44.487 1.72998Z" fill="white"/>
<path d="M44.487 1.72998H21.4332C19.8281 1.73101 18.3454 2.58771 17.5428 3.97774L6.01594 23.9266C5.20969 25.3141 5.20969 27.0274 6.01594 28.4149L17.5428 48.3638C18.3454 49.7538 19.8281 50.6105 21.4332 50.6115H44.487C46.0938 50.6101 47.5786 49.7539 48.3845 48.3638L59.897 28.3861C60.7033 26.9986 60.7033 25.2853 59.897 23.8978L48.3845 3.97774C47.5786 2.58766 46.0938 1.7314 44.487 1.72998Z" stroke="#EBBF0C" stroke-width="3"/>
</g>
<path d="M49.6107 33.9754C49.1866 34.2891 48.7683 34.6173 48.3297 34.9107C48.1492 35.0032 48.0442 35.1971 48.0653 35.3987C48.0857 35.8344 48.0653 36.2701 48.0653 36.7116C48.0941 36.9834 47.9566 37.2458 47.7168 37.3768C47.3711 37.5889 47.0313 37.8154 46.7088 38.0565C46.608 38.1367 46.5432 38.2538 46.5287 38.3818C46.5113 38.8727 46.5287 39.3636 46.5287 39.8545C46.5455 40.082 46.4333 40.2997 46.2383 40.4181C45.7735 40.7201 45.3117 41.028 44.8527 41.3418C44.6384 41.518 44.3293 41.518 44.1149 41.3418C43.8245 41.1268 43.4875 40.9351 43.1854 40.7143C43.1227 40.6514 43.0375 40.616 42.9487 40.616C42.8598 40.616 42.7746 40.6514 42.7119 40.7143C42.404 40.9438 42.0729 41.1413 41.7563 41.3592C41.5468 41.5215 41.2541 41.5215 41.0446 41.3592C40.5857 41.0455 40.1122 40.755 39.6649 40.4268C39.5053 40.2931 39.3907 40.1136 39.3367 39.9126C39.3192 39.9126 39.2902 39.9126 39.2815 39.9126C38.291 40.8189 37.0274 40.9729 35.7958 41.1558C34.4686 41.3879 33.1152 41.4319 31.7757 41.2866C30.7503 41.15 29.7249 40.9961 28.7199 40.7724C27.7155 40.5379 26.8569 39.8903 26.3555 38.9889C25.975 38.3615 25.638 37.7051 25.2923 37.0544C25.2042 36.9305 25.1747 36.7743 25.2115 36.6268C25.2484 36.4793 25.348 36.3554 25.4841 36.2876C25.76 36.1423 26.033 36.2527 26.216 36.578C26.4775 37.0544 26.7505 37.525 26.9916 38.013C27.4873 39.0845 28.5147 39.8123 29.6901 39.9243C30.6922 40.0608 31.6973 40.2351 32.7052 40.2873C34.3081 40.3505 35.9111 40.1653 37.4573 39.7384C38.2817 39.5036 38.9569 38.9106 39.296 38.1233C38.9213 37.8735 38.5495 37.6121 38.1632 37.3681C37.922 37.2404 37.7812 36.9805 37.8059 36.7087C37.8233 36.2614 37.8059 35.8112 37.8059 35.3639C37.8306 35.1837 37.7401 35.0073 37.5793 34.9223C37.2307 34.7132 36.9025 34.475 36.5597 34.2543C36.3662 34.1374 36.2541 33.9222 36.2693 33.6966C36.2693 33.0653 36.2693 32.4349 36.2693 31.8056C36.2577 31.5664 36.3826 31.3413 36.5917 31.2246C36.9345 31.0068 37.2627 30.7715 37.6084 30.5566C37.7506 30.4842 37.8336 30.3319 37.8175 30.1731C37.8175 29.7113 37.8175 29.2524 37.8175 28.7934C37.7875 28.5222 37.9255 28.26 38.1661 28.1311C38.5117 27.9191 38.8487 27.6925 39.174 27.4514C39.2745 27.3713 39.3384 27.254 39.3512 27.1261C39.3715 26.6352 39.3686 26.1443 39.3512 25.6505C39.3342 25.4237 39.4466 25.2068 39.6417 25.0899C40.1064 24.7994 40.5625 24.4683 41.0301 24.172C41.1666 24.0849 41.3206 24.0413 41.4891 23.9629C36.171 24.749 30.7679 24.7715 25.4434 24.0297C24.9786 25.9642 24.5168 27.8959 24.052 29.8391L24.3425 29.9321C24.7849 30.0528 25.1291 30.4008 25.2448 30.8446C25.3605 31.2883 25.2302 31.7601 24.9031 32.0815C24.7663 32.1987 24.7107 32.3849 24.7608 32.5579C24.8531 32.9216 25.017 33.2633 25.243 33.5629C25.5303 33.8893 25.633 34.3389 25.5157 34.7577C25.3984 35.1764 25.0771 35.5073 24.662 35.6369C24.5319 35.6726 24.4 35.7016 24.267 35.724C24.1812 35.8442 24.1506 35.9952 24.1828 36.1392C24.2149 36.2833 24.3068 36.4069 24.4355 36.4793C24.8264 36.7736 24.9776 37.2898 24.8073 37.7486C24.69 38.2322 24.287 38.5937 23.7935 38.6578C23.5989 38.6898 23.4798 38.7566 23.4566 38.9483C23.4467 38.9899 23.431 39.03 23.4101 39.0674C23.2183 39.4381 23.1186 39.8496 23.1196 40.267C23.1198 40.6294 22.955 40.9722 22.6717 41.1984C22.3885 41.4245 22.0177 41.5093 21.6643 41.4289C20.6826 41.2372 19.7124 40.9787 18.7364 40.7521C18.4982 40.694 18.2571 40.6475 18.0218 40.5778C17.6232 40.4695 17.3 40.1776 17.152 39.7919C17.0039 39.4063 17.0486 38.9731 17.2724 38.6258C17.358 38.452 17.4112 38.264 17.4293 38.071C17.5365 37.6223 17.3958 37.1504 17.0604 36.8336C16.3952 36.1133 16.9122 34.8642 18.0799 34.8003C18.1758 34.6806 18.2146 34.5249 18.1861 34.3742C18.1577 34.2234 18.0648 34.0926 17.9318 34.0161C17.5571 33.7208 17.4103 33.2209 17.5658 32.77C17.659 32.298 18.0374 31.9347 18.5127 31.8608C19.0559 31.794 19.0559 31.2798 19.3348 30.9894C19.3609 30.9632 19.3086 30.8528 19.2854 30.7831C19.1227 30.3417 19.2145 29.8466 19.5247 29.4928C19.8348 29.139 20.3136 28.9832 20.7726 29.0868C20.8539 29.0868 20.9382 29.0868 21.0398 29.11C21.3071 28.012 21.5714 26.9286 21.8299 25.8422C22.9298 21.2412 24.0269 16.6401 25.121 12.039C25.1667 11.7685 25.1793 11.4935 25.1587 11.2199C25.1587 10.9556 25.1123 10.6883 25.1093 10.4211C25.0971 9.96005 25.2995 9.5194 25.6572 9.22823C26.0149 8.93707 26.4874 8.82834 26.9364 8.9339C27.2676 9.00652 27.5987 9.08785 27.9298 9.17208C28.3918 9.27578 28.7772 9.59243 28.9685 10.0255C29.1598 10.4586 29.1344 10.9567 28.9 11.368C28.8638 11.4458 28.82 11.5197 28.7693 11.5888C27.9298 12.6897 27.8979 14.0549 27.5464 15.3155C27.5609 15.3533 27.5464 15.333 27.5464 15.3155C28.391 15.1428 29.2443 15.0157 30.1026 14.935C31.8454 14.8595 33.5621 14.8305 35.2904 14.8682C36.2475 14.9268 37.2007 15.0373 38.1457 15.1994C38.3453 15.2411 38.54 15.3034 38.7267 15.3853C39.1595 15.5479 39.4238 15.8181 39.3628 16.3264C39.3543 16.4662 39.4049 16.6032 39.5022 16.704C40.0077 17.1455 39.9902 17.6103 39.4441 18.0285C39.4122 18.0518 39.386 18.0837 39.3541 18.1099C40.0338 18.7576 40.0367 19.1149 39.3541 19.6523C40.2123 20.3043 40.9614 21.0887 41.5733 21.976C42.1923 22.8817 42.6639 23.8798 42.9705 24.933L43.9842 24.2592C44.4461 23.9513 44.5158 23.9513 44.9863 24.2592C45.4046 24.5496 45.82 24.8169 46.2412 25.0928C46.4367 25.2092 46.5493 25.4265 46.5317 25.6534C46.5317 26.1356 46.5317 26.6149 46.5317 27.1058C46.5155 27.2645 46.5986 27.4168 46.7408 27.4892C47.0952 27.7099 47.435 27.951 47.7836 28.1776C47.9796 28.295 48.0922 28.5133 48.0741 28.7411C48.0741 29.2233 48.0741 29.7026 48.0741 30.1935C48.0562 30.3526 48.1398 30.5058 48.2832 30.5769C48.5737 30.7628 48.8641 30.9574 49.1546 31.1578C49.3144 31.2711 49.4451 31.4164 49.6077 31.5442L49.6107 33.9754ZM23.0441 29.6183L27.102 12.6723L26.1144 12.4428C24.7579 18.107 23.4101 23.7421 22.0478 29.386L23.0441 29.6183ZM40.089 21.8482L40.1558 21.7582L38.7557 20.515C38.5931 20.3668 38.4362 20.2245 38.2503 20.0415C34.9209 20.6152 31.5178 20.6152 28.1884 20.0415C27.802 20.361 27.4651 20.6225 27.1514 20.9129C26.8377 21.2034 26.553 21.4939 26.2567 21.7843C30.8564 21.3088 35.4939 21.3302 40.089 21.8482ZM26.033 23.0101C30.7919 23.7044 35.6264 23.7044 40.3853 23.0101C35.6261 22.3183 30.7919 22.3193 26.0331 23.013L26.033 23.0101ZM28.0983 18.4817C27.9734 18.8419 28.1128 18.9813 28.4527 19.0191C29.4897 19.1323 30.5237 19.3095 31.5636 19.3792C33.701 19.5297 35.8489 19.4038 37.954 19.0045C38.3665 18.9203 38.3665 18.9116 38.2735 18.4875C34.9066 19.0696 31.4646 19.0676 28.0983 18.4817ZM28.0751 17.4679C29.2718 17.5957 30.4424 17.7758 31.6188 17.8397C33.7494 17.9958 35.8913 17.8698 37.9889 17.465C38.381 17.3837 38.381 17.3779 38.2793 17.0003C34.8951 17.5231 31.4506 17.5231 28.0664 17.0003L28.0751 17.4679ZM39.3163 32.7845C39.5342 32.1687 39.1972 31.8608 38.718 31.5674C38.4881 31.3921 38.1694 31.3921 37.9395 31.5674C37.4807 31.7895 37.2135 32.2784 37.2743 32.7845C37.2294 33.2561 37.4753 33.7078 37.8959 33.926C38.1464 34.1415 38.5168 34.1415 38.7673 33.926C39.1856 33.6356 39.5371 33.3654 39.3163 32.7845ZM40.3766 26.4871C40.3766 27.3585 40.3766 27.3585 41.004 27.7651L41.033 27.7797C41.2886 28.0469 41.5007 27.951 41.7999 27.7797C42.3169 27.4892 42.465 27.1348 42.4563 26.5597C42.4563 26.0339 42.3343 25.6883 41.8521 25.4443C41.37 25.2003 41.4193 25.1858 40.9807 25.4443C40.5421 25.7028 40.2052 26.0107 40.3766 26.4871ZM43.4556 26.4871C43.4556 27.3585 43.4556 27.3585 44.083 27.7651L44.1091 27.7797C44.3647 28.0469 44.5797 27.951 44.8789 27.7797C45.393 27.4892 45.5441 27.1348 45.5324 26.5597C45.5324 26.0339 45.4133 25.6883 44.9282 25.4443C44.4432 25.2003 44.4954 25.1858 44.0568 25.4443C43.6182 25.7028 43.2813 26.0107 43.4556 26.4871ZM40.8413 29.6822C41.0534 29.1013 40.7367 28.7789 40.2604 28.4913C40.0226 28.3107 39.6936 28.3107 39.4558 28.4913C38.9992 28.7164 38.7357 29.2063 38.7993 29.7113C38.7993 30.2399 38.9329 30.5827 39.4064 30.8238C39.8798 31.0649 39.8363 31.0794 40.2778 30.8238C40.7193 30.5682 41.0592 30.2632 40.8558 29.691L40.8413 29.6822ZM43.9203 29.6822C44.1295 29.1013 43.839 28.7382 43.3394 28.5029L43.3103 28.4855C43.0547 28.2183 42.8398 28.3141 42.5435 28.4855C42.0796 28.7017 41.8119 29.1959 41.8841 29.7026C41.8841 30.2283 42.009 30.574 42.4883 30.818C42.9676 31.062 42.9211 31.0765 43.3597 30.818C43.7983 30.5595 44.1411 30.2719 43.9348 29.6968L43.9203 29.6822ZM44.9805 29.5428C44.9805 30.4142 44.9805 30.3881 45.6225 30.8499C45.8455 31.0385 46.1721 31.0385 46.3951 30.8499C46.854 30.6279 47.1212 30.139 47.0603 29.6329C47.1065 29.1602 46.8603 28.707 46.4387 28.4884C46.1877 28.2741 45.8182 28.2741 45.5673 28.4884C45.1635 28.805 44.8092 29.0723 44.9951 29.5573L44.9805 29.5428ZM42.4331 32.8745C42.4331 32.0031 42.4331 32.0031 41.8057 31.5935H41.7795C41.5239 31.3234 41.309 31.4222 41.0098 31.5935C40.4956 31.884 40.3533 32.2355 40.3504 32.8106C40.3119 33.2833 40.5602 33.733 40.9807 33.9522C41.2321 34.1652 41.6007 34.1652 41.8521 33.9522C42.285 33.6356 42.6016 33.348 42.4331 32.8745ZM43.4556 32.648C43.4556 33.5019 43.4556 33.4845 44.083 33.9318C44.3141 34.1284 44.6536 34.1284 44.8847 33.9318C45.3282 33.7143 45.5857 33.2401 45.5266 32.7496C45.5266 32.1977 45.3785 31.8579 44.8905 31.5877C44.6467 31.3931 44.3006 31.3931 44.0568 31.5877C43.6182 31.8753 43.2813 32.1629 43.4556 32.648ZM48.5504 32.7612C48.7625 32.16 48.4255 31.8637 47.9695 31.5732C47.7324 31.3906 47.402 31.3906 47.1649 31.5732C46.7146 31.7904 46.4537 32.2712 46.5171 32.7671C46.4719 33.2479 46.7238 33.708 47.1533 33.9289C47.3967 34.1247 47.7435 34.1247 47.9869 33.9289C48.4313 33.6414 48.7567 33.348 48.5504 32.7612ZM40.8587 35.8519C41.0475 35.2709 40.7716 34.9572 40.301 34.6725C40.0463 34.4686 39.6843 34.4686 39.4296 34.6725C39.0058 34.8977 38.7601 35.3569 38.808 35.8344C38.7554 36.3145 39.0051 36.777 39.4354 36.9963C39.6792 37.191 40.0253 37.191 40.2691 36.9963C40.7251 36.7204 41.0679 36.4386 40.8587 35.8519ZM41.9538 35.8141C41.7331 36.4299 42.0816 36.732 42.5551 37.0254C42.7843 37.2027 43.1044 37.2027 43.3336 37.0254C43.7919 36.8031 44.0581 36.3139 43.9958 35.8083C44.0408 35.3366 43.7948 34.8849 43.3742 34.6667C43.1233 34.4524 42.7538 34.4524 42.5028 34.6667C42.0758 34.9572 41.7505 35.2332 41.9538 35.8141ZM45.0299 35.8315C44.8353 36.4125 45.1054 36.7581 45.6109 36.9934L45.637 37.0108C45.9013 37.281 46.125 37.1909 46.4329 37.0108C46.9354 36.7204 47.0806 36.3834 47.0777 35.817C47.1288 35.3349 46.8753 34.8718 46.4416 34.6551C46.1978 34.4605 45.8517 34.4605 45.6079 34.6551C45.149 34.9543 44.8266 35.2477 45.0299 35.8315ZM42.3982 38.9134C42.5928 38.3325 42.3169 37.9897 41.8173 37.7515C41.807 37.7485 41.7979 37.7425 41.7912 37.7341C41.5239 37.464 41.3003 37.5598 40.9953 37.7341C40.4927 38.0246 40.3446 38.3615 40.3504 38.9279C40.2952 39.4046 40.5387 39.8663 40.9633 40.0898C41.2172 40.2959 41.5808 40.2959 41.8347 40.0898C42.2791 39.7877 42.5958 39.4944 42.3982 38.9134ZM45.4743 38.9134C45.6864 38.3121 45.3494 38.0159 44.8934 37.7254C44.6563 37.5428 44.3259 37.5428 44.0888 37.7254C43.688 37.9837 43.4458 38.4279 43.4458 38.9047C43.4458 39.3815 43.688 39.8257 44.0888 40.084C44.3326 40.2787 44.6786 40.2787 44.9224 40.084C45.3552 39.7964 45.6777 39.5031 45.4743 38.9163L45.4743 38.9134ZM23.5931 37.6644C23.6512 37.5976 23.7732 37.525 23.7906 37.4291C23.8342 37.1996 23.6367 37.159 23.4711 37.1183C21.7437 36.7 20.0154 36.2885 18.2862 35.8838C18.0974 35.8373 17.9027 35.785 17.8417 36.0232C17.7807 36.2614 17.9957 36.3137 18.1874 36.3718L22.1291 37.3158L23.5931 37.6644ZM18.7712 32.8368C18.7132 32.892 18.5737 32.9646 18.5621 33.0517C18.5505 33.1388 18.6609 33.255 18.7451 33.3422C18.8293 33.4293 18.9049 33.3916 18.9862 33.4119L23.9533 34.597C24.052 34.6364 24.1579 34.6542 24.2641 34.6493C24.3512 34.6319 24.4819 34.5476 24.4906 34.4779C24.4866 34.3671 24.4385 34.2626 24.357 34.1875C24.3076 34.1352 24.2002 34.1323 24.1188 34.1119L20.6332 33.2812C20.0406 33.133 19.4393 33.0052 18.7712 32.8368ZM36.9867 16.1027C35.8597 15.7396 30.0938 15.7571 29.388 16.126C31.9123 16.429 34.4643 16.4212 36.9867 16.1027ZM26.2219 11.3913L26.675 11.5104C27.5174 11.7137 27.5174 11.7137 27.956 10.9498C27.956 10.9323 27.9792 10.9149 27.9879 10.8975C28.0814 10.7678 28.0997 10.5984 28.0359 10.4518C27.9721 10.3051 27.8358 10.203 27.6771 10.1829C27.3866 10.0987 27.0613 10.0261 26.7505 9.95345C26.6007 9.90039 26.4341 9.92916 26.3107 10.0294C26.1873 10.1296 26.1251 10.2868 26.1463 10.4443C26.1521 10.7522 26.1928 11.0572 26.2219 11.3913ZM19.2389 34.5273C19.2709 34.7306 18.9484 34.9659 19.326 35.0618C20.5751 35.3726 21.8299 35.663 23.1022 35.9651L23.2097 35.4771L19.2389 34.5273ZM18.5127 37.5162C18.565 37.7457 18.3065 37.9897 18.6812 38.0769L21.9432 38.8524C22.3905 38.9599 22.3905 38.957 22.4835 38.4661L18.5127 37.5162ZM20.456 30.1005C20.4066 30.1557 20.2585 30.2574 20.2701 30.3242C20.3049 30.4464 20.3937 30.5459 20.5112 30.5943C21.0921 30.7541 21.6731 30.8848 22.2395 31.0271C22.8059 31.1695 23.3113 31.2944 23.8516 31.4047C23.9718 31.419 24.0925 31.3833 24.1856 31.306C24.2292 31.2682 24.2118 31.091 24.1595 31.0155C24.0778 30.9451 23.9764 30.9014 23.869 30.8906L20.7494 30.1383C20.6767 30.1209 20.6041 30.115 20.456 30.1005ZM21.8793 40.4297C21.9432 40.36 22.0942 40.2438 22.0768 40.1973C22.0304 40.0675 21.9327 39.9625 21.8067 39.9068C20.7261 39.6338 19.6398 39.3753 18.5534 39.1226C18.3936 39.0848 18.1932 39.0238 18.1264 39.262C18.0596 39.5002 18.2513 39.5525 18.4343 39.6105L20.729 40.1537L21.8793 40.4297ZM23.7151 32.9617C23.7151 32.4475 23.7151 32.4446 23.2939 32.3401L20.6216 31.7039C20.1684 31.5935 20.1713 31.5935 19.936 32.0525L23.7151 32.9617ZM26.5966 19.2543L26.3787 20.1926L27.0439 19.6436L26.5966 19.2543Z" fill="black"/>
<defs>
<filter id="filter0_d_201_953" x="0.911255" y="0.22998" width="64.0905" height="57.8815" filterUnits="userSpaceOnUse" color-interpolation-filters="sRGB">
<feFlood flood-opacity="0" result="BackgroundImageFix"/>
<feColorMatrix in="SourceAlpha" type="matrix" values="0 0 0 0 0 0 0 0 0 0 0 0 0 0 0 0 0 0 127 0" result="hardAlpha"/>
<feOffset dy="3"/>
<feGaussianBlur stdDeviation="1.5"/>
<feComposite in2="hardAlpha" operator="out"/>
<feColorMatrix type="matrix" values="0 0 0 0 0 0 0 0 0 0 0 0 0 0 0 0 0 0 0.160784 0"/>
<feBlend mode="normal" in2="BackgroundImageFix" result="effect1_dropShadow_201_953"/>
<feBlend mode="normal" in="SourceGraphic" in2="effect1_dropShadow_201_953" result="shape"/>
</filter>
</defs>
</svg>
