<svg width="25" height="24" viewBox="0 0 25 24" fill="none" xmlns="http://www.w3.org/2000/svg">
<path d="M6.5 2.5C6.5 1.11929 7.61929 0 9 0H20C21.3807 0 22.5 1.11929 22.5 2.5V2.5C22.5 3.88071 21.3807 5 20 5H9C7.61929 5 6.5 3.88071 6.5 2.5V2.5Z" fill="#8E8E93"/>
<circle cx="3" cy="2.5" r="2.5" fill="#8E8E93"/>
<path d="M6.5 21.5C6.5 20.1193 7.61929 19 9 19H22C23.3807 19 24.5 20.1193 24.5 21.5V21.5C24.5 22.8807 23.3807 24 22 24H9C7.61929 24 6.5 22.8807 6.5 21.5V21.5Z" fill="#8E8E93"/>
<circle cx="3" cy="21.5" r="2.5" fill="#8E8E93"/>
<path d="M6.5 12.5C6.5 11.1193 7.61929 10 9 10H19C20.3807 10 21.5 11.1193 21.5 12.5V12.5C21.5 13.8807 20.3807 15 19 15H9C7.61929 15 6.5 13.8807 6.5 12.5V12.5Z" fill="#8E8E93"/>
<circle cx="3" cy="12.5" r="2.5" fill="#8E8E93"/>
</svg>
