<svg width="65" height="59" viewBox="0 0 65 59" fill="none" xmlns="http://www.w3.org/2000/svg">
<g filter="url(#filter0_d_201_958)">
<path d="M44.2895 1.72998H21.2357C19.6306 1.73101 18.1479 2.58771 17.3453 3.97774L5.81843 23.9266C5.01219 25.3141 5.01219 27.0274 5.81843 28.4149L17.3453 48.3638C18.1479 49.7538 19.6306 50.6105 21.2357 50.6115H44.2895C45.8963 50.6101 47.381 49.7539 48.187 48.3638L59.6995 28.3861C60.5058 26.9986 60.5058 25.2853 59.6995 23.8978L48.187 3.97774C47.381 2.58766 45.8963 1.7314 44.2895 1.72998Z" fill="white"/>
<path d="M44.2895 1.72998H21.2357C19.6306 1.73101 18.1479 2.58771 17.3453 3.97774L5.81843 23.9266C5.01219 25.3141 5.01219 27.0274 5.81843 28.4149L17.3453 48.3638C18.1479 49.7538 19.6306 50.6105 21.2357 50.6115H44.2895C45.8963 50.6101 47.381 49.7539 48.187 48.3638L59.6995 28.3861C60.5058 26.9986 60.5058 25.2853 59.6995 23.8978L48.187 3.97774C47.381 2.58766 45.8963 1.7314 44.2895 1.72998Z" stroke="#EBBF0C" stroke-width="3"/>
</g>
<path d="M29.4682 8.89441C29.6564 9.04259 29.8349 9.20268 30.0027 9.37369C31.8714 11.5267 33.5343 13.8499 34.9698 16.313C34.9923 16.3462 35.0166 16.3782 35.0424 16.4089C35.5594 16.1881 35.8993 16.4496 36.2275 16.8388C38.377 19.3833 40.3232 22.0469 41.8307 25.0243C42.7699 26.7988 43.434 28.7057 43.8001 30.6797C44.1341 32.6433 44.0906 34.5866 43.3063 36.4514C42.3555 38.7902 40.3296 40.5227 37.8716 41.0989C35.1295 41.8222 32.5327 41.4359 30.1944 39.7802C28.4246 38.5377 27.2654 36.6025 27.005 34.4559C26.9963 33.9844 26.6663 33.58 26.2062 33.477C23.011 32.347 21.2391 30.032 20.7599 26.6974C20.4694 24.5624 20.8586 22.503 21.5616 20.4929C22.6247 17.4546 24.2978 14.7561 26.2091 12.1971C26.9469 11.2153 27.7341 10.2712 28.5126 9.3214C28.6683 9.1635 28.8385 9.02055 29.0209 8.89441L29.4682 8.89441ZM35.4316 18.2795C35.0017 18.8198 34.5863 19.3252 34.1884 19.8423C32.4136 22.1428 30.8247 24.5537 29.689 27.2435C28.8176 29.3174 28.2366 31.4553 28.4458 33.7355C28.6404 35.8327 29.5437 37.5349 31.3505 38.6967C32.9787 39.7633 34.9627 40.1423 36.8694 39.7511C38.6727 39.4666 40.2735 38.438 41.2817 36.9162C42.4146 35.2082 42.5714 33.3027 42.3158 31.3362C42.0948 29.83 41.6606 28.3629 41.0261 26.9791C39.892 24.5042 38.4664 22.1736 36.7794 20.0369C36.3437 19.4588 35.8993 18.8837 35.4316 18.2795ZM29.2533 10.7999C28.6723 11.5319 28.1466 12.1884 27.6353 12.8622C25.9481 15.0124 24.5452 17.3711 23.4613 19.88C22.6044 21.9656 22.035 24.0831 22.2703 26.3604C22.5027 28.5796 23.5252 30.305 25.4655 31.4379C25.878 31.679 26.3369 31.8532 26.8075 32.0827C26.8946 31.4756 26.9469 30.9528 27.0457 30.4386C27.4311 28.5562 28.0773 26.7368 28.9657 25.033C30.2929 22.4782 31.8899 20.0729 33.7294 17.8583C33.8626 17.7341 33.8753 17.5274 33.7585 17.3878C33.1775 16.4728 32.6634 15.5259 32.0476 14.6428C31.1704 13.356 30.2176 12.1128 29.2533 10.7999Z" fill="black"/>
<path d="M41.2382 32.1146C40.9913 34.8567 38.7808 36.9626 36.1375 36.9336C35.9283 36.9503 35.7213 36.8816 35.5637 36.7432C35.406 36.6047 35.3112 36.4082 35.3009 36.1987C35.2962 35.985 35.3771 35.7784 35.5254 35.6246C35.6737 35.4708 35.8773 35.3826 36.091 35.3795C37.5434 35.2866 38.6588 34.665 39.2862 33.3259C39.4631 32.8591 39.5764 32.3706 39.6231 31.8736C39.6482 31.5215 39.8746 31.2158 40.2041 31.0893C40.5174 30.9837 40.8625 31.1031 41.0435 31.3798C41.1382 31.6158 41.2036 31.8626 41.2382 32.1146Z" fill="black"/>
<path d="M24.597 20.4871C25.2041 20.4871 25.541 21.0361 25.2941 21.6258C25.1316 21.9676 24.9976 22.3222 24.8933 22.686C24.5557 24.1222 25.1775 25.613 26.4357 26.3837C26.7165 26.4969 26.9135 26.754 26.9498 27.0547C26.9904 27.3436 26.8673 27.6311 26.6303 27.8012C26.3866 27.9855 26.0538 27.9982 25.7966 27.8331C24.5288 27.1481 23.6315 25.9346 23.348 24.5218C23.0769 23.3242 23.2568 22.0687 23.8534 20.9954C23.9775 20.6927 24.2698 20.4928 24.597 20.4871Z" fill="black"/>
<defs>
<filter id="filter0_d_201_958" x="0.713745" y="0.22998" width="64.0905" height="57.8815" filterUnits="userSpaceOnUse" color-interpolation-filters="sRGB">
<feFlood flood-opacity="0" result="BackgroundImageFix"/>
<feColorMatrix in="SourceAlpha" type="matrix" values="0 0 0 0 0 0 0 0 0 0 0 0 0 0 0 0 0 0 127 0" result="hardAlpha"/>
<feOffset dy="3"/>
<feGaussianBlur stdDeviation="1.5"/>
<feComposite in2="hardAlpha" operator="out"/>
<feColorMatrix type="matrix" values="0 0 0 0 0 0 0 0 0 0 0 0 0 0 0 0 0 0 0.160784 0"/>
<feBlend mode="normal" in2="BackgroundImageFix" result="effect1_dropShadow_201_958"/>
<feBlend mode="normal" in="SourceGraphic" in2="effect1_dropShadow_201_958" result="shape"/>
</filter>
</defs>
</svg>
