<svg width="16" height="18" viewBox="0 0 16 18" fill="none" xmlns="http://www.w3.org/2000/svg">
<g filter="url(#filter0_b_201_1466)">
<path d="M11.4881 18H4.5113C2.29946 18 0.5 16.2478 0.5 14.094V9C0.5 7.04534 1.99969 5.38044 3.9884 5.1273V3.906C3.9884 1.75222 5.78786 0 7.9997 0C9.06162 0 10.0688 0.40497 10.8356 1.1403C11.5942 1.88987 12.0119 2.87207 12.0119 3.906V5.1273C14.0002 5.38039 15.5003 7.04572 15.5003 9V14.094C15.5003 16.2478 13.7004 18 11.4881 18ZM4.5113 6.1128C2.87661 6.1128 1.5467 7.40799 1.5467 9V14.094C1.5467 15.686 2.87661 16.9812 4.5113 16.9812H11.4881C13.1233 16.9812 14.4536 15.686 14.4536 14.094V9C14.4536 7.40799 13.1233 6.1128 11.4881 6.1128H4.5113ZM7.9997 1.0188C6.36501 1.0188 5.0351 2.31399 5.0351 3.906V5.094H10.9652V3.906C10.9652 3.13993 10.6561 2.41342 10.0949 1.8603C9.52968 1.31765 8.78559 1.0188 7.9997 1.0188ZM7.9997 13.2453C7.03794 13.2453 6.2555 12.4834 6.2555 11.547C6.2555 10.6105 7.03794 9.8487 7.9997 9.8487C8.96146 9.8487 9.7439 10.6105 9.7439 11.547C9.7439 12.4834 8.96146 13.2453 7.9997 13.2453Z" fill="#EBC00D"/>
</g>
<defs>
<filter id="filter0_b_201_1466" x="-1.68833" y="-2.18833" width="19.377" height="22.3767" filterUnits="userSpaceOnUse" color-interpolation-filters="sRGB">
<feFlood flood-opacity="0" result="BackgroundImageFix"/>
<feGaussianBlur in="BackgroundImageFix" stdDeviation="1.09417"/>
<feComposite in2="SourceAlpha" operator="in" result="effect1_backgroundBlur_201_1466"/>
<feBlend mode="normal" in="SourceGraphic" in2="effect1_backgroundBlur_201_1466" result="shape"/>
</filter>
</defs>
</svg>
